<?xml version="1.0" standalone="no"?>
<!DOCTYPE svg PUBLIC "-//W3C//DTD SVG 1.1//EN" "http://www.w3.org/Graphics/SVG/1.1/DTD/svg11.dtd" >
<svg xmlns="http://www.w3.org/2000/svg">
<metadata></metadata>
<defs>
<font id="railwayregular" horiz-adv-x="409" >
<font-face units-per-em="2048" ascent="1638" descent="-410" />
<missing-glyph horiz-adv-x="512" />
<glyph horiz-adv-x="0" />
<glyph horiz-adv-x="682" />
<glyph unicode=" "  horiz-adv-x="512" />
<glyph unicode="&#x09;" horiz-adv-x="512" />
<glyph unicode="&#xa0;" horiz-adv-x="512" />
<glyph unicode="!" d="M68 111l139 139l147 -141l-139 -140zM102 1253v181h205v-181l-43 -934h-114z" />
<glyph unicode="&#x22;" horiz-adv-x="733" d="M25 936v22q22 7 45 25q18 14 36 45q17 29 26 73q9 43 9 111v222h205v-222q0 -60 -24 -109q-23 -47 -69 -87q-44 -38 -102 -59q-59 -21 -126 -21zM393 985v23q24 8 45 24q20 16 37 45t26 73t9 112v172h207v-172q0 -60 -26 -110q-26 -51 -68 -87q-43 -37 -103 -58 q-63 -22 -127 -22z" />
<glyph unicode="#" horiz-adv-x="1474" d="M68 469l24 90h277l67 252h-278l24 96h281l76 281h96l-76 -281h262l76 281h100l-77 -281h270l-23 -96h-272l-70 -252h277l-27 -90h-272l-78 -291h-96l76 291h-263l-77 -291h-101l80 291h-276zM467 559h264l66 252h-262z" />
<glyph unicode="$" horiz-adv-x="901" d="M74 334v276q49 -98 143 -153q95 -56 211 -56q80 0 124 13q97 30 97 106q0 44 -42 65q-47 24 -105 36l-137 30q-168 37 -243 140q-42 57 -42 138q0 79 28 135q28 55 92 100t128 69v231q0 9 8 9h178q8 0 8 -7v-235q190 -25 240 -80v-236q-131 127 -334 127q-59 0 -101 -18 t-42 -72t42 -78t105 -39q90 -21 136 -31q72 -15 137 -46q147 -72 147 -230q0 -81 -66 -165q-80 -101 -256 -160v-193q0 -8 -8 -8h-178q-6 0 -6 6l-2 209q-129 37 -262 117z" />
<glyph unicode="%" horiz-adv-x="1474" d="M70 1090q0 63 23 116q24 55 65 96q37 37 95 63q54 24 118 24q63 0 117 -24q58 -26 95 -63t63 -95q24 -54 24 -117q0 -62 -24 -117q-25 -58 -63 -96q-41 -41 -96 -65t-116 -24t-117 24q-55 24 -96 65t-65 96q-23 53 -23 117zM225 1092q0 -60 42 -101q43 -41 104 -41 q59 0 100 42q41 43 41 102t-41 98t-104 39q-61 0 -101 -40q-41 -41 -41 -99zM285 0l688 1366h192l-684 -1366h-196zM788 279q0 63 24 118q24 56 65 97q39 39 95 64q54 24 118 24q58 0 117 -25q56 -24 98 -67t65 -97q25 -58 25 -119q0 -60 -24 -116t-64 -96q-37 -37 -97 -63 q-55 -24 -116 -24q-64 0 -119 24q-56 24 -97 64t-66 97q-24 56 -24 119zM948 276q0 -59 43 -101q44 -42 103 -42q60 0 100 42q41 43 41 101v11q0 55 -44 94q-43 39 -99 39q-60 0 -102 -42t-42 -102z" />
<glyph unicode="&#x26;" horiz-adv-x="1339" d="M10 403q0 128 68 228q67 98 176 151q-48 52 -86 131q-39 82 -39 170q0 69 29 135q29 65 76 111q50 48 114 76q67 29 139 29q74 0 144 -28q65 -26 119 -75q50 -45 80 -109q30 -63 30 -132q0 -78 -23 -136q-24 -59 -61 -104q-40 -48 -83 -77q-45 -31 -91 -52l217 -217 l164 254h246l-262 -402l352 -356h-281l-200 190q-67 -96 -183 -155q-114 -58 -231 -58q-91 6 -169 41q-76 34 -131 91q-54 56 -84 130q-30 75 -30 164zM215 403q0 -49 17 -87t48 -69q29 -29 69 -47q41 -18 83 -18q75 0 143 43q72 45 111 119l-280 285q-23 -6 -55 -23 q-34 -18 -62 -43q-33 -30 -52 -65q-22 -41 -22 -95zM334 1083q0 -43 9 -70q9 -26 25 -49q16 -22 34 -39q26 -24 42 -40q40 8 77 24q40 17 68 43q30 27 48 62q18 34 18 80q0 54 -49 94q-50 41 -119 41q-62 0 -108 -44q-45 -43 -45 -102z" />
<glyph unicode="(" d="M-2 584q0 175 14 312q16 158 41 278q28 135 64 249q38 121 84 230h200q-42 -104 -82 -230q-35 -110 -62 -249q-24 -125 -40 -278q-14 -137 -14 -312q0 -176 14 -313q15 -144 42 -276q25 -123 65 -248q36 -112 84 -228h-205q-48 116 -84 228q-40 125 -65 248 q-27 132 -42 276q-14 137 -14 313z" />
<glyph unicode=")" d="M-6 -481q51 122 86 228q39 119 66 249q29 141 43 277q16 157 16 315q0 166 -15 311t-42 276q-25 123 -65 248q-36 115 -83 230h201q48 -115 86 -230q40 -120 66 -248q27 -131 42 -276t15 -311q0 -158 -16 -315q-14 -136 -43 -277q-27 -130 -66 -249q-35 -106 -86 -228 h-205z" />
<glyph unicode="*" horiz-adv-x="827" d="M41 940l328 121l-328 115l92 165l266 -227l-67 350h194l-63 -346l252 230l96 -162l-322 -117l324 -113l-92 -168l-260 222l65 -338l-188 -4l59 336l-260 -224z" />
<glyph unicode="+" horiz-adv-x="1036" d="M125 603v199h293v310h200v-310h295v-199h-295v-310h-200v310h-293z" />
<glyph unicode="," horiz-adv-x="321" d="M4 -270q24 8 45 24q20 16 37 45t26 73t9 112v221h205v-221q0 -58 -25 -110q-23 -47 -69 -87q-43 -37 -102 -58q-61 -22 -126 -22v23z" />
<glyph unicode="-" horiz-adv-x="776" d="M63 451v225h637v-225h-637z" />
<glyph unicode="." horiz-adv-x="276" d="M41 0v199h205v-199h-205z" />
<glyph unicode="/" horiz-adv-x="612" d="M-2 -303l416 1999h211l-402 -1999h-225z" />
<glyph unicode="0" horiz-adv-x="1269" d="M176 723q0 164 36 296q36 133 99 224q62 91 148 141q85 50 180 50t180 -50q86 -50 148 -141q63 -91 99 -224q36 -132 36 -296q0 -187 -36 -326t-99 -231q-62 -91 -148 -138q-83 -46 -180 -46t-180 46q-86 47 -148 138q-63 92 -99 231t-36 326zM381 723q0 -110 18 -209 q18 -97 53 -171q36 -75 80 -115q46 -42 107 -42q57 0 105 42q46 41 82 115q35 74 53 171q18 99 18 209q0 103 -15 195q-15 89 -47 160q-32 69 -80 110q-49 41 -116 41t-116 -41q-48 -41 -80 -110q-32 -71 -47 -160q-15 -92 -15 -195z" />
<glyph unicode="1" horiz-adv-x="634" d="M215 0v1241l205 240v-1481h-205z" />
<glyph unicode="2" horiz-adv-x="1269" d="M217 -2l533 862q18 39 33 105q14 62 14 112q-12 82 -70 132q-59 51 -141 51q-68 0 -126 -34t-105 -81q-44 -44 -79 -98q-11 -17 -53 -86v346q66 69 164 114q93 43 203 43q88 0 165 -30q75 -29 134 -84q56 -52 90 -124q33 -71 33 -149q2 -109 -25 -184q-27 -77 -72 -150 l-329 -540h471v-205h-840z" />
<glyph unicode="3" horiz-adv-x="1269" d="M174 244l156 131q34 -85 111 -138t175 -53q55 0 104 20t84 52q34 31 56 78q21 45 21 94q0 58 -23 112q-23 53 -61 90q-39 38 -91 60q-54 23 -112 23q-23 0 -85 -2q-45 -1 -83 -6l305 526h-538v203h890l-317 -553q68 -22 136 -69q65 -45 107 -103q44 -61 69 -131 q26 -73 26 -150q0 -92 -39 -174q-39 -83 -104 -142q-68 -61 -155 -97q-86 -35 -190 -35q-145 0 -262 72q-116 71 -180 192z" />
<glyph unicode="4" horiz-adv-x="1269" d="M12 408l920 1097v-893h334v-204h-332v-408h-205v408h-717zM453 612h276v332z" />
<glyph unicode="5" horiz-adv-x="1269" d="M168 186l119 170q61 -80 124 -125q65 -47 156 -47q53 0 101 20q49 21 83 53q37 35 57 80q21 47 21 97q0 58 -22 106q-23 50 -63 87t-93 58q-55 22 -112 22q-40 0 -116 -4q-55 -3 -138 -33l102 764h713l-139 -205h-400l-41 -322q118 8 208 -25q98 -36 165 -97 q69 -63 109 -148q40 -84 40 -178q0 -100 -37 -186q-36 -84 -104 -152t-153 -104q-87 -37 -189 -37q-123 0 -224 55t-167 151z" />
<glyph unicode="6" horiz-adv-x="1269" d="M190 498q0 135 38 276q36 136 107 266q70 130 166 236q99 109 216 188h233q-153 -123 -283 -280t-202 -340q40 19 93 32q44 11 95 11q85 0 164 -35q77 -34 135 -95q55 -58 91 -141q34 -78 34 -172q0 -91 -35 -173q-34 -81 -93 -141t-138 -96t-168 -36q-95 0 -176 40 q-82 40 -143 107q-62 68 -98 159q-36 92 -36 194zM395 498q0 -62 21 -116t55 -94t82 -63q45 -22 100 -22q46 0 85 19q41 20 70 53q28 32 47 78q17 41 17 96q0 51 -17 91q-18 42 -47 74q-32 35 -70 52q-40 18 -85 18q-77 0 -142 -24q-69 -26 -112 -66q-4 -21 -4 -49v-47z" />
<glyph unicode="7" horiz-adv-x="1269" d="M162 -2l629 1231h-621v205h948l-729 -1436h-227z" />
<glyph unicode="8" horiz-adv-x="1269" d="M201 412q0 68 19 124q20 58 53 104q35 49 79 87q50 43 94 74q-75 55 -125 130q-51 77 -51 191q0 75 29 144q28 66 79 117q49 49 117 80q66 30 142 30t142 -30q68 -31 117 -80q51 -51 79 -117q29 -69 29 -144q0 -115 -53 -192q-52 -76 -128 -131q45 -32 95 -73 q42 -35 79 -85q36 -48 56 -103q20 -54 20 -126q0 -86 -35 -167q-34 -79 -94 -137q-61 -60 -138 -93q-76 -33 -169 -33t-169 33q-77 33 -138 93q-60 58 -94 137q-35 81 -35 167zM403 412q0 -45 19 -88q19 -42 50 -72q32 -30 75 -48t90 -18t89 18q43 18 74 48t50 72 q18 40 18 90t-18 87q-18 38 -51 68q-37 33 -75 58q-42 27 -87 51q-44 -23 -89 -50q-39 -24 -75 -58q-33 -32 -51 -70q-19 -41 -19 -88zM475 1122q0 -60 45 -106q46 -47 115 -94q72 47 117 92q47 47 47 108q0 67 -47 117q-46 49 -115 49t-115 -49q-47 -50 -47 -117z" />
<glyph unicode="9" horiz-adv-x="1269" d="M162 989q0 93 37 173q39 84 100 142q63 60 148 96q86 36 182 36q99 0 186 -40t154 -110q64 -67 103 -163q38 -94 38 -199q0 -147 -43 -279q-44 -136 -119 -253q-77 -120 -176 -227q-101 -108 -215 -200h-262q65 48 142 117q77 70 146 147q71 80 131 167q59 86 97 175 q-56 -27 -101 -40q-52 -15 -106 -15q-91 0 -171 37q-83 38 -141 101q-60 65 -95 151q-35 87 -35 184zM367 963q0 -50 20 -91q20 -42 56 -75q37 -34 85 -53t109 -19q76 0 144 28t116 76q7 22 9 47q1 16 1 46q0 64 -21 121q-20 55 -61 99q-37 40 -90 65q-51 24 -110 24 q-52 0 -99 -21q-51 -23 -82 -57q-36 -39 -56 -86q-21 -49 -21 -104z" />
<glyph unicode=":" horiz-adv-x="536" d="M160 4v201h205v-201h-205zM160 700v201h205v-201h-205z" />
<glyph unicode=";" horiz-adv-x="653" d="M160 -270q24 8 45 24q20 16 37 45q15 27 25 73q9 44 9 112v221h205v-221q0 -60 -24 -110q-23 -47 -69 -87q-43 -37 -102 -58q-61 -22 -126 -22v23zM276 700v201h205v-201h-205z" />
<glyph unicode="&#x3c;" horiz-adv-x="688" d="M63 707l553 387l-193 -281v-205l197 -282z" />
<glyph unicode="=" horiz-adv-x="1073" d="M80 166v170h913v-170h-913zM80 645v170h913v-170h-913z" />
<glyph unicode="&#x3e;" horiz-adv-x="688" d="M63 326l197 282v205l-193 281l553 -387z" />
<glyph unicode="?" horiz-adv-x="921" d="M63 1196q15 46 48 92q34 48 85 86q55 41 122 65q69 25 157 25q86 0 152 -26q69 -27 119 -74t80 -113q29 -65 34 -145q4 -85 -20 -148q-23 -60 -64 -105t-86 -76l-88 -59q-42 -28 -70 -56t-30 -68q0 -27 8 -49q8 -21 22 -37q10 -11 30 -31l32 -31l-150 -141q-22 29 -48 54 q-22 22 -50 57q-24 30 -42 69q-17 38 -19 95q-2 59 26 105q28 47 71 90q46 46 91 80q39 29 91 76q41 37 69 77q27 38 22 86q0 69 -55 117q-57 49 -139 49q-75 0 -138 -39t-87 -134zM299 121l143 145l144 -145l-144 -144z" />
<glyph unicode="@" horiz-adv-x="1632" d="M97 522q-45 193 12 385q57 193 200 330q144 138 347 189q35 9 82 16q34 5 81 5q45 0 81 -4q79 -9 152 -30q67 -20 134 -53q60 -30 117 -76q50 -40 98 -98q41 -49 80 -121q23 -43 40 -91q17 -47 24 -92q8 -50 8 -94q0 -265 -184 -403q-86 -62 -175 -74q-45 -6 -83 -3 q-37 3 -67 15q-27 11 -35 16q-20 12 -27 18q-12 11 -21 21q-11 -6 -18 -12q-2 -2 -7 -5t-7 -5t-6 -5.5t-6 -5.5l-1 -1q-16 -9 -31 -15q-4 -1 -10.5 -4t-12 -5t-10.5 -3q-22 -6 -34 -8q-24 -4 -36 -5q-75 -6 -139 19h-1q-130 79 -132 202t114 195q113 71 322 84q3 25 -1 50 q-3 21 -11 32q-30 43 -85 58q-56 15 -101 3q-52 -14 -195 -89l-11 -6l4 12q26 85 70 173l1 1l1 1q31 15 65 24q44 12 67 15q31 4 68 4q35 0 68 -6q30 -5 64 -20q35 -15 60 -32h1q16 -13 32 -31q17 -18 26 -33q13 -20 19 -35q5 -12 11 -38q5 -22 5 -40q0 -31 -1 -48 q0 -6 -0.5 -16.5t-1 -19.5t-1.5 -17q-4 -54 -3 -78v-1v-1q0 -1 -1 -3t-1 -3t-0.5 -3.5t-0.5 -4.5q0 -1 -0.5 -5t-0.5 -6t-0.5 -6t-0.5 -7v-15v-35q0 -3 3 -27q6 -32 17 -46q12 -15 29 -15q88 -4 158 62q67 65 81 170q7 58 -7 111q-16 63 -50 125q-91 155 -263 235 q-170 79 -339 43q-168 -36 -279 -144q-112 -109 -154 -257q-12 -44 -16 -75t-2 -76q1 -38 9 -77q6 -33 22 -78q56 -158 161 -248q104 -89 227 -121q64 -17 118 -23q56 -6 107 -3q100 6 234 35l10 2l-4 -9q-3 -5 -15 -34l-28 -66l-13 -31l-10 -25l-7 -18l-5 -12q0 -1 -1 -3 t-1 -3l-1 -3l-3 -1q-199 -54 -426 11q-229 65 -364 208q-139 146 -183 337zM675 530q0 -13 2 -19q4 -12 10 -19q10 -13 18 -19q44 -28 83 -22q20 3 33 6q15 3 23 6q14 3 51 17l25 9l17 6v179q-5 -1 -27 -5q-2 0 -39 -5q-7 -1 -20 -3.5t-18 -3.5q-21 -4 -34 -7q-17 -4 -30 -9 q-9 -3 -25 -11q-8 -4 -20 -12q-24 -16 -35 -37q-13 -24 -14 -51z" />
<glyph unicode="A" horiz-adv-x="1382" d="M25 -2l598 1436h141l598 -1436h-225l-140 352h-608l-139 -352h-225zM479 553h428l-213 520z" />
<glyph unicode="B" horiz-adv-x="1095" d="M100 0v1434h369q85 0 163 -29q76 -28 134 -80q57 -51 90 -119t33 -145q0 -65 -27 -125t-74 -107q118 -62 187 -166q72 -108 72 -239q0 -86 -39 -164q-38 -76 -106 -135q-64 -55 -156 -91q-87 -34 -189 -34h-457zM305 205h254q59 0 104 17q48 18 83 47q38 32 58 70 q21 41 21 83q0 54 -21 100q-21 47 -59 82q-37 34 -86 55t-104 21h-141h-109v-475zM305 885h170q43 0 77 14q38 16 63 38q28 25 44 55q17 32 17 69q0 34 -17 65q-18 33 -45 54q-26 21 -66 35q-39 14 -79 14h-164v-344z" />
<glyph unicode="C" horiz-adv-x="1378" d="M63 748q0 146 60 277q60 130 161 227q104 100 237 155q136 57 290 57q145 0 275 -39t241 -108v-268q-87 93 -222 152t-288 59q-111 0 -213 -41q-97 -39 -175 -111q-73 -67 -118 -163q-43 -92 -43 -197q0 -118 44 -224q42 -102 119 -182q75 -78 175 -123t215 -45 q155 0 285 63q133 64 217 169v-277q-106 -75 -239 -118q-131 -42 -273 -42q-152 0 -290 62q-133 60 -237 167q-101 104 -161 247q-60 142 -60 303z" />
<glyph unicode="D" horiz-adv-x="1402" d="M104 0v1434h498q150 0 287 -55q134 -54 236 -148t160 -218q58 -123 58 -265q0 -155 -58 -290q-58 -136 -159 -238q-99 -100 -234 -161q-131 -59 -286 -59h-502zM309 205h297q110 0 205 43q97 44 169 116q73 73 116 170q43 96 43 207q0 102 -43 189t-116 154 q-74 67 -170 106q-98 39 -204 39h-297v-1024z" />
<glyph unicode="E" horiz-adv-x="1054" d="M104 0v1434h861v-205h-656v-359h498v-204h-498v-457h697v-209h-902z" />
<glyph unicode="F" horiz-adv-x="1013" d="M104 4v1430h861v-205h-656v-359h498v-204h-498v-662h-205z" />
<glyph unicode="G" horiz-adv-x="1474" d="M66 748q0 149 59 277q60 130 161 227q104 100 237 155q137 57 290 57t294 -39q140 -39 259 -108v-246q-95 83 -239 136t-308 53q-111 0 -213 -41q-97 -39 -175 -111q-73 -67 -118 -163q-43 -92 -43 -197q0 -118 44 -224q42 -102 119 -182q75 -78 175 -123t215 -45 q201 0 363 76v350h-254v205h459v-676q-122 -76 -270 -118q-147 -42 -308 -42q-152 0 -290 62q-133 60 -237 167q-101 104 -161 247q-59 140 -59 303z" />
<glyph unicode="H" horiz-adv-x="1347" d="M102 0v1434h205v-592h731v592h205v-1434h-205v637h-731v-637h-205z" />
<glyph unicode="I" d="M102 0v1434h205v-1434h-205z" />
<glyph unicode="J" horiz-adv-x="876" d="M29 240l204 100q0 -67 50 -117q49 -49 118 -49q38 0 71 17q34 18 58 48q25 31 39 68q15 39 15 82v1045h209v-1041q0 -86 -30 -164q-30 -79 -82 -135q-52 -57 -121 -91q-68 -34 -148 -34q-70 0 -131 21q-66 23 -112 56q-51 37 -86 85q-36 50 -54 109z" />
<glyph unicode="K" horiz-adv-x="1249" d="M104 0v1434h205v-560l594 523h275l-689 -606l738 -791h-275l-647 688v-688h-201z" />
<glyph unicode="L" horiz-adv-x="983" d="M104 2v1434h205v-1229h652v-205h-857z" />
<glyph unicode="M" horiz-adv-x="1617" d="M104 0v1432h205l502 -613l502 613h205v-1432h-201v1114l-506 -618l-506 618v-1114h-201z" />
<glyph unicode="N" horiz-adv-x="1521" d="M104 0v1434h205l889 -1108v1108h201v-1434h-205l-891 1112v-1112h-199z" />
<glyph unicode="O" horiz-adv-x="1617" d="M63 748q0 146 60 277q60 130 161 227q104 100 237 155q136 57 290 57q153 0 290 -57q133 -55 237 -155q101 -97 161 -227t60 -277q0 -160 -60 -303t-161 -247q-104 -107 -237 -167q-138 -62 -290 -62t-290 62q-133 60 -237 167q-101 104 -161 247q-60 142 -60 303z M268 748q0 -118 44 -224q42 -102 119 -182q75 -78 175 -123t215 -45q109 0 205 45q98 46 169 123q73 79 116 180t43 219q0 108 -43 201q-43 94 -117 165q-75 72 -171 112q-99 41 -206 41q-111 0 -213 -41q-97 -39 -175 -111q-73 -67 -118 -163q-43 -92 -43 -197z" />
<glyph unicode="P" horiz-adv-x="1024" d="M104 2v1432h365q99 0 190 -35t158 -93q68 -59 107 -138t39 -167q0 -89 -39 -167q-38 -76 -106 -138q-63 -57 -156 -93q-89 -34 -191 -34h-162v-567h-205zM309 774h162q75 0 132 19q53 18 89 49q35 30 50 71q16 43 16 88t-23 88t-61 72q-42 32 -91 49q-55 19 -112 19h-162 v-455z" />
<glyph unicode="Q" horiz-adv-x="1617" d="M63 748q0 146 60 277q60 130 161 227q104 100 237 155q136 57 290 57q153 0 290 -57q133 -55 237 -155q101 -97 161 -227t60 -277q0 -134 -42 -256q-41 -119 -116 -220l172 -151l-135 -152l-178 158q-94 -76 -209 -117t-240 -41q-152 0 -290 62q-133 60 -237 167 q-101 104 -161 247q-60 142 -60 303zM268 748q0 -118 44 -224q42 -102 119 -182q75 -78 175 -123t215 -45q155 0 283 88l-127 111l133 151l137 -118q50 73 78 156q29 87 29 179q0 108 -43 201q-43 94 -117 165q-75 72 -171 112q-99 41 -206 41q-111 0 -213 -41 q-97 -39 -175 -111q-73 -67 -118 -163q-43 -92 -43 -197z" />
<glyph unicode="R" horiz-adv-x="1187" d="M104 0v1434h385q86 0 164 -33q80 -34 137 -88q59 -56 93 -130q35 -76 35 -157q0 -116 -56 -211t-147 -156l448 -653h-250l-415 598h-189v-604h-205zM309 817h219q35 0 67 17t56 45q24 29 39 66t15 81q0 40 -20 78q-19 37 -52 64q-34 28 -77 44q-45 17 -91 17h-156v-412z " />
<glyph unicode="S" horiz-adv-x="886" d="M6 289l180 110q16 -84 88 -139q71 -55 170 -55q48 0 91 18q40 17 74 49q31 30 50 72q19 43 19 88q0 79 -47 126q-43 43 -117 80q-61 31 -152 62q-78 27 -150 74q-68 44 -114 115q-43 65 -43 174v10q0 72 26 139q25 64 74 115q48 49 114 78q67 29 149 29q120 0 216 -61 t142 -154l-184 -132q-5 31 -19 55q-17 29 -37 45q-22 18 -55 31q-27 11 -63 11q-65 0 -111 -46q-47 -47 -47 -110q0 -65 46 -102t116 -66q50 -21 149 -58q81 -31 150 -80q70 -50 116 -129t46 -206q0 -89 -35 -168q-34 -77 -94 -137q-57 -57 -140 -93q-78 -34 -170 -34 q-152 0 -271 80q-117 78 -167 209z" />
<glyph unicode="T" horiz-adv-x="1142" d="M23 1229v205h1097v-205h-446v-1229h-205v1229h-446z" />
<glyph unicode="U" horiz-adv-x="1409" d="M84 578v856h205v-854q0 -84 33 -158q34 -75 89 -129q58 -57 132 -87q78 -32 162 -32q83 0 161 32q74 30 132 87q55 54 89 129q33 73 33 158v854h205v-856q0 -125 -48 -236q-49 -113 -133 -194q-86 -83 -198 -131t-241 -48t-242 48q-112 48 -198 131q-84 81 -133 194 q-48 111 -48 236z" />
<glyph unicode="V" horiz-adv-x="1378" d="M25 1434h219l442 -1090l440 1090h220l-580 -1432h-162z" />
<glyph unicode="W" horiz-adv-x="2037" d="M27 1430h217l358 -1080l313 1039h213l314 -1039l358 1080h217l-473 -1428h-205l-317 1038l-317 -1038h-205z" />
<glyph unicode="X" horiz-adv-x="1464" d="M25 0l577 760l-512 674h258l383 -504l385 504h258l-512 -676l582 -758h-264l-447 588l-448 -588h-260z" />
<glyph unicode="Y" horiz-adv-x="1173" d="M31 1434h241l320 -500l319 500h242l-459 -719v-715h-205v715z" />
<glyph unicode="Z" horiz-adv-x="1372" d="M68 2l878 1227h-837v205h1232l-876 -1227h856v-207z" />
<glyph unicode="[" horiz-adv-x="589" d="M143 -162v1790q2 8 9 8h368q8 0 8 -8v-178q0 -8 -8 -8h-166l-18 -6v-1411h186q6 0 6 -9v-178q0 -6 -8 -6h-366z" />
<glyph unicode="\" horiz-adv-x="612" d="M-2 1696h211l416 -1999h-226z" />
<glyph unicode="]" horiz-adv-x="589" d="M61 18q0 9 9 9h184v1411q4 0 -12 6h-172q-9 0 -9 8v178q0 8 9 8h368l8 -8v-1790q-4 -6 -8 -6h-368q-9 0 -9 6v178z" />
<glyph unicode="^" horiz-adv-x="919" d="M20 718q-2 3 0 5l429 426q14 14 30 -4l420 -422q13 -8 -4 -8h-256l-178 176l-176 -176h-260q-3 0 -5 3z" />
<glyph unicode="_" horiz-adv-x="1294" d="M-4 -8l6 8h1290l6 -4v-182l-4 -7h-1290q-8 0 -8 13v172z" />
<glyph unicode="`" horiz-adv-x="501" d="M61 1208v172l379 -200l-2 -166z" />
<glyph unicode="a" horiz-adv-x="937" d="M74 260q0 70 29 129q30 62 99 107q67 44 178 71q110 27 269 27q0 50 -8 95q-7 42 -31 70q-23 27 -61 42q-36 14 -98 14q-89 0 -168 -30q-83 -31 -166 -107h-21l78 258q53 35 135 60q78 24 150 24q56 0 122 -13q69 -13 129 -57t102 -126t42 -220v-604h-205v51 q-53 -35 -120 -53q-66 -18 -121 -18q-70 0 -130 21q-62 22 -106 60q-43 38 -72 90q-26 48 -26 109zM270 264q0 -66 57 -84t136 -18q45 0 95 15q48 15 91 40v193q-67 0 -147 -7q-70 -6 -121 -21q-50 -15 -81 -44q-30 -28 -30 -74z" />
<glyph unicode="&#xaa;" horiz-adv-x="937" d="M74 260q0 70 29 129q30 62 99 107q67 44 178 71q110 27 269 27q0 50 -8 95q-7 42 -31 70q-23 27 -61 42q-36 14 -98 14q-89 0 -168 -30q-83 -31 -166 -107h-21l78 258q53 35 135 60q78 24 150 24q56 0 122 -13q69 -13 129 -57t102 -126t42 -220v-604h-205v51 q-53 -35 -120 -53q-66 -18 -121 -18q-70 0 -130 21q-62 22 -106 60q-43 38 -72 90q-26 48 -26 109zM270 264q0 -66 57 -84t136 -18q45 0 95 15q48 15 91 40v193q-67 0 -147 -7q-70 -6 -121 -21q-50 -15 -81 -44q-30 -28 -30 -74z" />
<glyph unicode="b" horiz-adv-x="1126" d="M104 0v1434h205v-521q59 35 120 52q65 18 134 18q104 0 194 -40q92 -41 158 -107q67 -67 108 -158q40 -89 40 -193q0 -106 -40 -196q-41 -93 -109 -161q-69 -69 -159 -109q-88 -39 -194 -39q-73 0 -133 17q-67 19 -119 50v-47h-205zM309 276q45 -42 113 -67 q69 -25 139 -25q63 0 115 24q55 25 94 64q41 41 65 97q23 53 23 116t-23 113q-24 52 -65 93q-39 39 -94 64q-50 23 -115 23q-77 0 -140 -25q-66 -26 -112 -69v-408z" />
<glyph unicode="c" horiz-adv-x="942" d="M63 485q0 104 40 193q41 92 109 158t160 107q90 40 195 40q92 0 171 -22q77 -22 153 -64v-246q-57 58 -140 92q-87 35 -186 35q-63 0 -115 -23q-56 -25 -95 -64q-38 -38 -63 -94q-24 -54 -24 -114q0 -61 24 -116q25 -58 63 -96q37 -37 95 -63q54 -24 115 -24 q102 0 186 34q86 35 140 93v-245q-76 -43 -154 -64q-81 -22 -172 -22q-107 0 -195 39q-92 41 -159 109q-67 69 -108 161q-40 90 -40 196z" />
<glyph unicode="d" horiz-adv-x="1126" d="M63 485q0 104 40 193q41 91 108 158q66 66 159 107q90 40 193 40q69 0 134 -18q61 -17 120 -52v521h205v-1434h-205v47q-52 -31 -119 -50q-60 -17 -133 -17q-105 0 -193 39q-92 41 -160 109t-109 161q-40 90 -40 196zM268 485q0 -61 24 -116q25 -58 64 -97q38 -38 95 -64 q53 -24 114 -24q71 0 140 25q66 24 112 67v408q-47 44 -111 69q-63 25 -141 25q-64 0 -114 -23q-57 -26 -95 -64q-40 -40 -64 -93q-24 -52 -24 -113z" />
<glyph unicode="e" horiz-adv-x="1101" d="M63 522q0 104 40 193q40 90 109 157q69 68 160 108q90 40 195 40q95 0 193 -31q94 -30 164 -98q69 -67 105 -174q25 -74 25 -168q0 -42 -5 -88h-775q12 -59 44 -111q31 -50 78 -88q46 -37 106 -58q63 -22 125 -22q105 0 199 35q93 35 159 90v-213q-89 -55 -183 -84 q-99 -30 -206 -30q-112 0 -208 43q-98 44 -169 116q-72 73 -114 173q-42 99 -42 210zM291 657h524q0 35 -20 64q-22 32 -55 53q-35 23 -78 37q-42 14 -97 14q-93 0 -166 -48t-108 -120z" />
<glyph unicode="f" horiz-adv-x="743" d="M16 735v203h164v192q0 73 27 136q27 64 72 110q48 49 105 75q62 28 130 28q42 0 102 -13t101 -28v-203q-58 33 -106 38q-53 5 -95 5q-57 0 -94 -55t-37 -133v-150h324v-207h-324v-729h-205v731h-164z" />
<glyph unicode="g" horiz-adv-x="983" d="M20 -160q17 91 72 155q56 65 135 95q-31 32 -56 81q-24 47 -24 99q0 38 16 80q15 39 44 68q-92 100 -92 244q0 80 29 147q30 70 81 122q51 53 121 83q69 30 148 30q58 0 115 -18t104 -53h233v-195h-84q12 -33 16 -56q5 -30 5 -56q0 -70 -25 -136q-23 -61 -65 -112 q-40 -49 -97 -80q-59 -32 -118 -39q-14 -2 -21 -2h-18q-77 0 -129 14q-12 -6 -24 -14q-9 -6 -9 -16q0 -18 8 -31t27 -21q20 -8 49 -17l74 -22q90 -17 165 -40q77 -23 142 -66q61 -40 99 -101t38 -149q0 -71 -37 -130q-39 -62 -101 -104q-67 -45 -152 -70q-89 -26 -187 -26 t-190 19q-84 17 -152 59q-64 39 -103 105q-37 62 -37 153zM238 -162q0 -54 74 -91q76 -38 188 -38q113 0 188 37q76 37 76 88q0 63 -85 106q-87 44 -220 56q-104 -28 -163 -69q-58 -40 -58 -89zM319 664q0 -36 14 -70q13 -32 37 -56q23 -23 55 -38q31 -15 69 -15q34 0 66 15 t55 38t38 56t15 70q0 36 -15 68t-38 55t-55 38t-66 15q-38 0 -69 -15q-32 -15 -55 -38t-37 -55q-14 -33 -14 -68z" />
<glyph unicode="h" horiz-adv-x="1071" d="M104 0v1434h205v-521q58 35 119 52q63 18 133 18q85 0 163 -32q76 -31 136 -87q59 -54 94 -128q35 -73 35 -152v-584h-205v584q0 40 -17 74q-18 36 -48 63q-29 26 -72 42q-40 15 -88 15q-76 0 -143 -38t-107 -97v-643h-205z" />
<glyph unicode="i" d="M63 1225l144 145l143 -145l-143 -144zM104 0v971h203v-971h-203z" />
<glyph unicode="j" d="M-117 -293q72 0 118 19q45 19 67 55q21 35 29 91q7 50 7 128v971h203v-971q0 -134 -17 -223q-18 -94 -65 -156q-46 -61 -130 -90t-212 -29v205zM63 1225l144 145l143 -145l-143 -144z" />
<glyph unicode="k" horiz-adv-x="1054" d="M104 0v1434h205v-779l332 285h311l-444 -389l528 -553h-286l-441 465v-463h-205z" />
<glyph unicode="l" horiz-adv-x="665" d="M94 303v1127h205v-1065q0 -80 41 -132q40 -51 102 -51q52 0 115 20t109 54v-207q-44 -32 -109 -52q-63 -20 -115 -20q-71 0 -137 25q-61 23 -110 69q-48 45 -74 103q-27 60 -27 129z" />
<glyph unicode="m" horiz-adv-x="1710" d="M104 0v973h211v-60q58 35 119 52q63 18 133 18q87 0 166 -41t135 -106q83 69 172 108q90 39 189 39q80 0 152 -33q74 -34 128 -88q55 -55 88 -129q33 -73 33 -155v-578h-205v578q0 40 -17 74q-18 36 -48 63q-29 26 -72 42q-41 15 -88 15q-64 0 -125 -35q-60 -34 -106 -94 v-643h-205v578q0 38 -18 74t-48 63t-71 42q-40 15 -88 15q-71 0 -128 -22q-58 -23 -98 -62v-688h-209z" />
<glyph unicode="n" horiz-adv-x="1071" d="M104 0v973h205v-60q58 35 119 52q63 18 133 18q85 0 163 -32q76 -31 136 -87q59 -54 94 -128q35 -73 35 -152v-584h-205v584q0 40 -17 74q-18 36 -48 63q-29 26 -72 42q-40 15 -88 15q-77 0 -143 -24q-64 -23 -107 -66v-688h-205z" />
<glyph unicode="o" horiz-adv-x="1126" d="M63 485q0 104 40 193q41 92 109 158t160 107q90 40 195 40q104 0 194 -40q93 -41 159 -107q65 -65 107 -158q40 -89 40 -193q0 -106 -40 -196q-42 -95 -108 -161q-69 -68 -160 -109q-88 -39 -194 -39q-107 0 -195 39q-92 41 -159 109q-67 69 -108 161q-40 90 -40 196z M268 483q0 -61 24 -116q25 -58 63 -96q37 -37 95 -63q54 -24 115 -24q63 0 115 24q55 25 94 64q41 41 65 97q23 53 23 116t-23 113q-24 52 -65 93q-39 39 -94 64q-50 23 -115 23q-63 0 -115 -23q-56 -25 -95 -64q-38 -38 -63 -94q-24 -54 -24 -114z" />
<glyph unicode="p" horiz-adv-x="1136" d="M104 -461v1434h205v-55q61 31 125 48q62 17 139 17q104 0 194 -40q93 -41 159 -107q65 -65 107 -158q40 -89 40 -193q0 -106 -40 -196q-42 -95 -108 -161q-69 -68 -160 -109q-88 -39 -194 -39q-74 0 -138 19q-68 20 -124 54v-514h-205zM309 297q47 -53 115 -83t147 -30 q63 0 115 24q55 25 94 64q41 41 65 97q23 53 23 116t-23 113q-24 52 -65 93q-39 39 -94 64q-50 23 -115 23q-79 0 -147 -27q-67 -27 -115 -73v-381z" />
<glyph unicode="q" horiz-adv-x="1136" d="M63 485q0 104 40 193q41 91 108 158q66 66 159 107q90 40 193 40q77 0 139 -17q64 -17 125 -48v55h205v-1434h-205v514q-56 -34 -124 -54q-64 -19 -138 -19q-105 0 -193 39q-92 41 -160 109t-109 161q-40 90 -40 196zM268 485q0 -61 24 -116q25 -58 64 -97q38 -38 95 -64 q53 -24 114 -24q81 0 148 30t114 83v381q-48 47 -114 73q-68 27 -148 27q-64 0 -114 -23q-57 -26 -95 -64q-40 -40 -64 -93q-24 -52 -24 -113z" />
<glyph unicode="r" horiz-adv-x="747" d="M102 0v973h205v-82q115 92 234 92q54 0 99 -13q46 -14 87 -36v-260q-61 62 -111 74q-51 12 -77 12q-30 0 -65 -5q-28 -4 -62 -21q-32 -16 -58 -45t-49 -79v-610h-203z" />
<glyph unicode="s" horiz-adv-x="901" d="M74 104v277q50 -99 143 -154q94 -55 211 -55q28 0 53 1q42 2 74 12q39 13 66 35q28 24 28 71q0 43 -42 64t-105 36l-137 31q-78 17 -138 49q-63 33 -105 90t-42 158q0 60 28 116q27 54 74 95q44 39 111 64q63 24 135 24q90 0 177 -26q86 -26 157 -70v-236q-61 58 -146 92 q-87 35 -188 35q-59 0 -101 -18t-42 -76q0 -50 42 -74q45 -26 105 -40q90 -21 136 -31q72 -15 137 -46q61 -29 105 -84q42 -53 42 -145q0 -96 -34 -158q-35 -65 -90 -102q-56 -38 -133 -55q-79 -17 -163 -17q-103 0 -195 36q-93 36 -163 101z" />
<glyph unicode="t" horiz-adv-x="880" d="M43 768v205h203v194h205v-194h411v-205h-411v-403q0 -80 41 -132q40 -51 102 -51q52 0 115 20q61 20 108 54v-207q-45 -32 -108 -52t-115 -20q-71 0 -137 25q-63 24 -111 69t-74 103t-26 129v465h-203z" />
<glyph unicode="u" horiz-adv-x="1075" d="M84 399v574h205v-537q0 -54 17 -95q18 -44 48 -77t71 -51t85 -18q78 0 140 17q72 20 120 54v707h205v-973h-205v61q-116 -81 -260 -81q-67 0 -137 20q-76 22 -139 70q-63 49 -107 130q-43 80 -43 199z" />
<glyph unicode="v" horiz-adv-x="1136" d="M25 973h223l319 -709l324 713h223l-438 -973h-213z" />
<glyph unicode="w" horiz-adv-x="1597" d="M23 971h217l239 -658l219 576h195l219 -576l240 658h217l-355 -975h-204l-213 573l-215 -573h-205z" />
<glyph unicode="x" horiz-adv-x="1003" d="M10 -4l369 493l-363 484h254l236 -314l233 314h254l-360 -486l366 -491h-256l-237 321l-240 -321h-256z" />
<glyph unicode="y" horiz-adv-x="1157" d="M27 973h231l317 -611l328 611h227l-636 -1202q-61 -114 -172 -182t-240 -68v205q74 0 135 38q63 39 98 103l144 274z" />
<glyph unicode="z" horiz-adv-x="1019" d="M16 0l576 768h-526v205h933l-571 -768h535v-205h-947z" />
<glyph unicode="|" d="M102 0v1434h205v-1434h-205z" />
<glyph unicode="~" horiz-adv-x="925" d="M59 539q39 100 115 155q88 83 246 35q69 -21 132 -49q67 -30 172 -49q109 -19 157 45q7 8 8 4h2q-37 -98 -115 -158q-109 -85 -264 -28q-76 21 -94 32q-19 12 -86 31q-186 51 -264 -16z" />
<glyph unicode="&#xa1;" d="M68 1294l139 140l147 -142l-139 -139zM115 -31v181l43 933h114l47 -933v-181h-204z" />
<glyph unicode="&#xa2;" horiz-adv-x="847" d="M144 705q0 81 32 154q32 74 112 142q82 70 154 89v125q0 6 7 6h142l5 -4v-123q167 -18 210 -59v-197q-41 44 -112 74q-66 28 -133 28q-66 0 -108 -19q-43 -19 -75 -51q-70 -70 -70 -166q0 -100 70 -170t168 -70q166 0 260 102v-197q-40 -41 -210 -57v-128q0 -5 -6 -5 h-143q-5 0 -5 5v130q-96 26 -165 93q-133 130 -133 298z" />
<glyph unicode="&#xa3;" horiz-adv-x="1269" d="M82 549l90 205h96q0 215 34 351q35 140 91 218q58 81 134 112q75 31 165 31q87 0 169 -43q85 -45 136 -112l-155 -246q0 81 -44 139t-106 58q-42 0 -82 -20q-38 -19 -68 -75q-29 -54 -46 -154q-17 -102 -17 -259h393l-90 -205h-303q0 -86 -16 -178q-16 -90 -41 -166h825 l-108 -205h-1030q34 54 63 122q30 70 50 138q23 79 34 146q12 73 12 143h-186z" />
<glyph unicode="&#xa5;" horiz-adv-x="2048" d="M0 608v205h948h58l-254 285l1296 -385l-1300 -383l258 278h-60h-946z" />
<glyph unicode="&#xa6;" horiz-adv-x="514" d="M144 1v637h226v-637h-226zM144 796v637h226v-637h-226z" />
<glyph unicode="&#xa7;" horiz-adv-x="1058" d="M57 -43l174 72q31 -69 82 -111t103 -43q150 -10 211 88q37 61 43 132t-37 130q-60 72 -219 141q-88 39 -115 54q-173 90 -203 205q-50 176 49 299q45 57 111 96q-24 30 -35 70q-47 176 51 299q67 88 171 123q101 34 194 13q92 -21 162 -76t98 -120l-184 -88 q-69 156 -189 84q-195 -125 -22 -254q12 -8 122 -56q114 -49 211 -111q99 -63 143 -181q45 -120 18 -257q-27 -140 -138 -228q37 -106 12 -229q-24 -119 -108 -208q-83 -88 -216 -118t-251 16q-120 47 -182 151q-50 90 -56 107zM377 606q2 0 152 -68q144 -65 212 -124 q1 1 5 7q2 3 6 7q43 43 43 144q0 99 -130 199q-129 99 -214 99q-238 -181 -74 -264z" />
<glyph unicode="&#xa8;" horiz-adv-x="768" d="M63 1225l144 145l143 -145l-143 -144zM418 1225l143 145l144 -145l-144 -144z" />
<glyph unicode="&#xa9;" horiz-adv-x="1617" d="M63 748q0 146 60 277q60 130 161 227q104 100 237 155q136 57 290 57q153 0 290 -57q133 -55 237 -155q101 -97 161 -227t60 -277q0 -160 -60 -303t-161 -247q-104 -107 -237 -167q-138 -62 -290 -62t-290 62q-133 60 -237 167q-101 104 -161 247q-60 142 -60 303z M268 748q0 -118 44 -224q42 -102 119 -182q75 -78 175 -123t215 -45q109 0 205 45q98 46 169 123q73 79 116 180t43 219q0 108 -43 201q-43 94 -117 165q-75 72 -171 112q-99 41 -206 41q-111 0 -213 -41q-97 -39 -175 -111q-73 -67 -118 -163q-43 -92 -43 -197zM421 720 q0 81 32 154q32 74 86 126q57 56 128 86q75 32 157 32q72 0 137 -18t122 -51v-196q-41 43 -113 74q-64 27 -148 27q-53 0 -93 -18q-43 -20 -75 -51q-31 -31 -51 -76q-19 -42 -19 -91q0 -51 19 -93q20 -45 51 -76q32 -31 75 -51q42 -19 93 -19q80 0 148 27q71 28 113 75v-197 q-57 -33 -123 -51t-138 -18q-81 0 -156 32q-73 31 -127 87q-55 56 -86 129q-32 75 -32 157z" />
<glyph unicode="&#xab;" horiz-adv-x="6211" d="M25 713l1296 385l-254 -285h57h1241q22 126 90 245t164 202q102 88 223 136q126 50 261 50q144 0 273 -50q125 -49 228 -136q100 -85 167 -202t89 -245h957l260 279h285l-260 -279h137l260 279h287l-263 -279h140l258 279h286l-262 -279h140h122v-205h-122h-140l262 -278 h-286l-258 278h-140l263 -278h-287l-260 278h-137l260 -278h-285l-260 278h-957q-22 -138 -89 -253q-64 -111 -167 -194q-102 -82 -228 -125q-129 -44 -273 -44q-135 0 -261 44q-123 43 -223 125q-98 80 -164 194q-68 118 -90 253h-1239h-59l258 -278zM2570 709 q0 -110 43 -205q44 -97 116 -169q73 -73 170 -116q96 -43 204 -43q100 0 190 33q92 34 163 90q72 57 125 137q52 79 75 172h-555v205h555q-23 92 -75 170q-52 77 -125 135q-71 56 -163 90q-90 33 -190 33q-108 0 -204 -43q-97 -44 -170 -116t-116 -170q-43 -96 -43 -203z " />
<glyph unicode="&#xac;" horiz-adv-x="1017" d="M70 612v127h878v-526h-135v399h-743z" />
<glyph unicode="&#xad;" horiz-adv-x="776" d="M63 451v225h637v-225h-637z" />
<glyph unicode="&#xae;" horiz-adv-x="1617" d="M63 748q0 146 60 277q60 130 161 227q104 100 237 155q136 57 290 57q153 0 290 -57q133 -55 237 -155q101 -97 161 -227t60 -277q0 -160 -60 -303t-161 -247q-104 -107 -237 -167q-138 -62 -290 -62t-290 62q-133 60 -237 167q-101 104 -161 247q-60 142 -60 303z M268 748q0 -118 44 -224q42 -102 119 -182q75 -78 175 -123t215 -45q109 0 205 45q98 46 169 123q73 79 116 180t43 219q0 108 -43 201q-43 94 -117 165q-75 72 -171 112q-99 41 -206 41q-111 0 -213 -41q-97 -39 -175 -111q-73 -67 -118 -163q-43 -92 -43 -197zM609 299 v778h164v-65q91 73 187 73q43 0 79 -10q35 -10 70 -29v-208q-47 48 -88 59q-39 10 -63 10q-28 0 -51 -4q-25 -4 -50 -17q-26 -13 -46 -36q-23 -26 -40 -63v-488h-162z" />
<glyph unicode="&#xaf;" horiz-adv-x="710" d="M41 1051v172l6 6h615l8 -4v-183l-4 -6h-615q-10 0 -10 15z" />
<glyph unicode="&#xb0;" horiz-adv-x="731" d="M55 1092q0 129 91 220t223 91q129 0 220 -91t91 -220q0 -131 -91 -222q-92 -92 -220 -92q-131 0 -223 92q-91 91 -91 222zM231 1092q0 -58 40 -97q41 -39 98 -39q55 0 95 39t40 97q0 55 -40 95t-95 40q-58 0 -98 -40t-40 -95z" />
<glyph unicode="&#xb1;" horiz-adv-x="1026" d="M119 625v200h293v310h200v-310h295v-200h-295v-310h-200v310h-293zM125 2v201h774v-201h-774z" />
<glyph unicode="&#xb2;" horiz-adv-x="1269" d="M217 -2l533 862q18 39 33 105q14 62 14 112q-12 82 -70 132q-59 51 -141 51q-68 0 -126 -34t-105 -81q-44 -44 -79 -98q-11 -17 -53 -86v346q66 69 164 114q93 43 203 43q88 0 165 -30q75 -29 134 -84q56 -52 90 -124q33 -71 33 -149q2 -109 -25 -184q-27 -77 -72 -150 l-329 -540h471v-205h-840z" />
<glyph unicode="&#xb3;" horiz-adv-x="1269" d="M174 244l156 131q34 -85 111 -138t175 -53q55 0 104 20t84 52q34 31 56 78q21 45 21 94q0 58 -23 112q-23 53 -61 90q-39 38 -91 60q-54 23 -112 23q-23 0 -85 -2q-45 -1 -83 -6l305 526h-538v203h890l-317 -553q68 -22 136 -69q65 -45 107 -103q44 -61 69 -131 q26 -73 26 -150q0 -92 -39 -174q-39 -83 -104 -142q-68 -61 -155 -97q-86 -35 -190 -35q-145 0 -262 72q-116 71 -180 192z" />
<glyph unicode="&#xb4;" horiz-adv-x="559" d="M111 1423v166l378 201v-170z" />
<glyph unicode="&#xb5;" horiz-adv-x="1026" d="M82 -221v1126h186v-2q5 0 7 -1.5t1 -4.5v-578q15 -59 67 -102t126 -55q73 -12 145 12q112 46 136 145v578l8 8h180l2 -2h4v-899l-8 -6h-180q-2 2 -2 6v31q-79 -70 -256 -58q-122 -6 -226 52v-250q0 -8 -6 -8h-176q-8 0 -8 8z" />
<glyph unicode="&#xb6;" horiz-adv-x="1185" d="M66 1013q0 91 47 174t138 131t257 48h534v-123h-114v-1366h-152v1366h-149v-1366h-150v764h-35q-162 0 -270 100q-106 99 -106 272z" />
<glyph unicode="&#xb7;" horiz-adv-x="327" d="M61 330v198h205v-198h-205z" />
<glyph unicode="&#xb8;" horiz-adv-x="471" d="M41 -190q75 -15 168 39q29 17 29 112v47h193l-1 -133q-2 -90 -51 -139q-95 -96 -338 -96v170z" />
<glyph unicode="&#xb9;" horiz-adv-x="634" d="M215 0v1241l205 240v-1481h-205z" />
<glyph unicode="&#xba;" horiz-adv-x="749" d="M61 1057q0 128 92 220q91 91 222 91q129 0 220 -91t91 -220q0 -130 -91 -221q-93 -93 -220 -93q-129 0 -222 93q-92 92 -92 221zM66 500v172l8 8h608l6 -6v-180l-4 -9h-608q-10 0 -10 15zM238 1057q0 -57 40 -96q41 -39 97 -39q55 0 95 39t40 96q0 55 -40 95t-95 40 q-57 0 -97 -40t-40 -95z" />
<glyph unicode="&#xbb;" horiz-adv-x="6211" d="M4 330l262 278h-139h-123v205h123h139l-262 279h287l258 -279h139l-262 279h287l260 -279h137l-260 279h285l260 -279h956q22 128 89 245t167 202q103 87 228 136q129 50 274 50q135 0 261 -50q120 -48 222 -136q98 -85 165 -202t89 -245h1241h58l-254 285l1296 -385 l-1300 -383l258 278h-60h-1239q-22 -138 -89 -253q-65 -112 -165 -194q-101 -83 -222 -125q-126 -44 -261 -44q-145 0 -274 44q-126 43 -228 125q-103 83 -167 194q-67 115 -89 253h-956l-260 -278h-285l260 278h-137l-260 -278h-287l262 278h-139l-258 -278h-287zM2556 608 q23 -93 75 -172q53 -80 125 -137t162 -90t191 -33q108 0 204 43q98 43 170 116q70 70 115 169q43 95 43 205q0 107 -43 203q-44 99 -115 170q-72 72 -170 116q-96 43 -204 43q-101 0 -191 -33t-162 -90q-73 -58 -125 -135q-52 -78 -75 -170h555v-205h-555z" />
<glyph unicode="&#xbd;" horiz-adv-x="1617" d="M63 748q0 146 60 277q60 130 161 227q104 100 237 155q136 57 290 57q153 0 290 -57q133 -55 237 -155q101 -97 161 -227t60 -277q0 -160 -60 -303t-161 -247q-104 -107 -237 -167q-138 -62 -290 -62t-290 62q-133 60 -237 167q-101 104 -161 247q-60 142 -60 303z M268 748q0 -118 44 -224q42 -102 119 -182q75 -78 175 -123t215 -45q109 0 205 45q98 46 169 123q73 79 116 180t43 219q0 108 -43 201q-43 94 -117 165q-75 72 -171 112q-99 41 -206 41q-111 0 -213 -41q-97 -39 -175 -111q-73 -67 -118 -163q-43 -92 -43 -197zM569 338 v757h204q48 0 86 -17q39 -18 72 -47q30 -27 49 -68t19 -83q0 -59 -30 -111q-28 -48 -77 -82l236 -345h-132l-219 315h-100v-319h-108zM678 770h115q20 0 35 8q16 9 30 24q13 15 21 35q7 18 7 43q0 22 -10 41t-28 34q-17 15 -40 23q-24 9 -48 9h-82v-217z" />
<glyph unicode="&#xbf;" horiz-adv-x="921" d="M64 336q-4 82 21 147q25 63 63 106q41 45 86 76l88 59q42 28 70 56t30 68q0 27 -8 49q-8 21 -22 37q-10 11 -30 31l-32 30l150 142q26 -33 48 -55q26 -26 50 -56q23 -29 42 -70q19 -40 20 -94q2 -57 -27 -105q-28 -47 -71 -90q-46 -46 -91 -80q-39 -29 -91 -76 q-41 -37 -69 -77q-27 -38 -22 -86q0 -70 55 -118q56 -48 139 -48q76 0 139 39t87 133l172 -108q-16 -49 -47 -92q-34 -48 -85 -86q-54 -40 -123 -65q-72 -26 -157 -26q-82 0 -151 27q-71 28 -120 74q-51 48 -80 112q-29 65 -34 146zM339 1321l143 143l143 -143l-143 -145z " />
<glyph unicode="&#xc0;" horiz-adv-x="1382" d="M25 -2l598 1436h141l598 -1436h-225l-140 352h-608l-139 -352h-225zM316 1782v172l379 -201l-2 -166zM479 553h428l-213 520z" />
<glyph unicode="&#xc1;" horiz-adv-x="1382" d="M25 -2l598 1436h141l598 -1436h-225l-140 352h-608l-139 -352h-225zM479 553h428l-213 520zM693 1587v166l379 201v-170z" />
<glyph unicode="&#xc2;" horiz-adv-x="1382" d="M25 -2l598 1436h141l598 -1436h-225l-140 352h-608l-139 -352h-225zM359 1587l334 363l334 -361l-207 -2l-127 139l-129 -139h-205zM479 553h428l-213 520z" />
<glyph unicode="&#xc3;" horiz-adv-x="1382" d="M25 -2l598 1436h141l598 -1436h-225l-140 352h-608l-139 -352h-225zM324 1622q34 94 114 157q95 74 248 33q9 -3 35 -12l42 -17q6 -2 11.5 -4.5t9 -4t4.5 -1.5q166 -60 259 21q8 7 10 5q1 -1 4 -3l2 -2q-40 -98 -117 -158q-101 -80 -264 -29l-4 1q-5 2 -15 6.5t-20 8.5 q-40 16 -45 19q-85 29 -144 29q-60 0 -116 -47q-7 -10 -14 -2zM479 553h428l-213 520z" />
<glyph unicode="&#xc4;" horiz-adv-x="1382" d="M25 -2l598 1436h141l598 -1436h-225l-140 352h-608l-139 -352h-225zM373 1731l143 145l143 -145l-143 -144zM479 553h428l-213 520zM727 1731l143 145l144 -145l-144 -144z" />
<glyph unicode="&#xc5;" horiz-adv-x="1382" d="M25 -2l598 1436h141l598 -1436h-225l-140 352h-608l-139 -352h-225zM479 553h428l-213 520zM512 1635q0 73 53 126q54 54 127 54q75 0 129 -54q53 -53 53 -126q0 -77 -53 -130t-129 -53q-74 0 -127 53t-53 130zM614 1635q0 -32 23 -57q22 -23 55 -23q34 0 57 23t23 57 q0 33 -23 55t-57 22q-33 0 -55 -22q-23 -23 -23 -55z" />
<glyph unicode="&#xc6;" horiz-adv-x="2084" d="M25 -2l970 1436h1000v-205h-656v-359h498v-204h-498v-457h697v-209l-899 -2l-1 2h-1v3v347h-613l-233 -352h-264zM643 553h485l3 676z" />
<glyph unicode="&#xc7;" horiz-adv-x="1378" d="M63 748q0 146 60 277q60 130 161 227q104 100 237 155q136 57 290 57q145 0 275 -39t241 -108v-268q-87 93 -222 152t-288 59q-111 0 -213 -41q-97 -39 -175 -111q-73 -67 -118 -163q-43 -92 -43 -197q0 -118 44 -224q42 -102 119 -182q75 -78 175 -123t215 -45 q155 0 285 63q133 64 217 169v-277q-106 -75 -239 -118q-131 -42 -273 -42q-152 0 -290 62q-133 60 -237 167q-101 104 -161 247q-60 142 -60 303zM517 -217q74 -15 168 40q29 17 29 111v48l194 -1l-1 -133q-2 -89 -52 -139q-94 -96 -338 -96v170z" />
<glyph unicode="&#xc8;" horiz-adv-x="1054" d="M104 0v1434h861v-205h-656v-359h498v-204h-498v-457h697v-209h-902zM158 1782v172l379 -201l-2 -166z" />
<glyph unicode="&#xc9;" horiz-adv-x="1054" d="M104 0v1434h861v-205h-656v-359h498v-204h-498v-457h697v-209h-902zM535 1587v166l378 201v-170z" />
<glyph unicode="&#xca;" horiz-adv-x="1054" d="M104 0v1434h861v-205h-656v-359h498v-204h-498v-457h697v-209h-902zM201 1587l334 363l333 -361l-206 -2l-127 139l-129 -139h-205z" />
<glyph unicode="&#xcb;" horiz-adv-x="1054" d="M104 0v1434h861v-205h-656v-359h498v-204h-498v-457h697v-209h-902zM214 1731l143 145l144 -145l-144 -144zM568 1731l144 145l143 -145l-143 -144z" />
<glyph unicode="&#xcc;" d="M-172 1782v172l379 -201l-2 -166zM102 0v1434h205v-1434h-205z" />
<glyph unicode="&#xcd;" d="M102 0v1434h205v-1434h-205zM205 1587v166l379 201v-170z" />
<glyph unicode="&#xce;" d="M-129 1587l334 363l334 -361l-207 -2l-127 139l-129 -139h-205zM102 0v1434h205v-1434h-205z" />
<glyph unicode="&#xcf;" d="M-116 1731l144 145l143 -145l-143 -144zM102 0v1434h205v-1434h-205zM239 1731l143 145l143 -145l-143 -144z" />
<glyph unicode="&#xd1;" horiz-adv-x="1521" d="M104 0v1434h205l889 -1108v1108h201v-1434h-205l-891 1112v-1112h-199zM382 1622q34 93 115 157q94 73 247 33q9 -3 35 -12l42 -17q6 -2 12 -4.5t9.5 -4t4.5 -1.5q165 -60 258 21q8 7 10 5l2 -2t2 -1l2 -2q-40 -99 -116 -158q-101 -80 -265 -29l-4 1q-5 2 -15 6.5 t-20 8.5q-40 16 -45 19q-85 29 -144 29q-60 0 -116 -47q-7 -10 -14 -2z" />
<glyph unicode="&#xd2;" horiz-adv-x="1617" d="M63 748q0 146 60 277q60 130 161 227q104 100 237 155q136 57 290 57q153 0 290 -57q133 -55 237 -155q101 -97 161 -227t60 -277q0 -160 -60 -303t-161 -247q-104 -107 -237 -167q-138 -62 -290 -62t-290 62q-133 60 -237 167q-101 104 -161 247q-60 142 -60 303z M268 748q0 -118 44 -224q42 -102 119 -182q75 -78 175 -123t215 -45q109 0 205 45q98 46 169 123q73 79 116 180t43 219q0 108 -43 201q-43 94 -117 165q-75 72 -171 112q-99 41 -206 41q-111 0 -213 -41q-97 -39 -175 -111q-73 -67 -118 -163q-43 -92 -43 -197zM434 1782 v172l379 -201l-2 -166z" />
<glyph unicode="&#xd3;" horiz-adv-x="1617" d="M63 748q0 146 60 277q60 130 161 227q104 100 237 155q136 57 290 57q153 0 290 -57q133 -55 237 -155q101 -97 161 -227t60 -277q0 -160 -60 -303t-161 -247q-104 -107 -237 -167q-138 -62 -290 -62t-290 62q-133 60 -237 167q-101 104 -161 247q-60 142 -60 303z M268 748q0 -118 44 -224q42 -102 119 -182q75 -78 175 -123t215 -45q109 0 205 45q98 46 169 123q73 79 116 180t43 219q0 108 -43 201q-43 94 -117 165q-75 72 -171 112q-99 41 -206 41q-111 0 -213 -41q-97 -39 -175 -111q-73 -67 -118 -163q-43 -92 -43 -197zM811 1587 v166l379 201v-170z" />
<glyph unicode="&#xd4;" horiz-adv-x="1617" d="M63 748q0 146 60 277q60 130 161 227q104 100 237 155q136 57 290 57q153 0 290 -57q133 -55 237 -155q101 -97 161 -227t60 -277q0 -160 -60 -303t-161 -247q-104 -107 -237 -167q-138 -62 -290 -62t-290 62q-133 60 -237 167q-101 104 -161 247q-60 142 -60 303z M268 748q0 -118 44 -224q42 -102 119 -182q75 -78 175 -123t215 -45q109 0 205 45q98 46 169 123q73 79 116 180t43 219q0 108 -43 201q-43 94 -117 165q-75 72 -171 112q-99 41 -206 41q-111 0 -213 -41q-97 -39 -175 -111q-73 -67 -118 -163q-43 -92 -43 -197zM477 1587 l334 363l334 -361l-207 -2l-127 139l-129 -139h-205z" />
<glyph unicode="&#xd5;" horiz-adv-x="1617" d="M63 748q0 146 60 277q60 130 161 227q104 100 237 155q136 57 290 57q153 0 290 -57q133 -55 237 -155q101 -97 161 -227t60 -277q0 -160 -60 -303t-161 -247q-104 -107 -237 -167q-138 -62 -290 -62t-290 62q-133 60 -237 167q-101 104 -161 247q-60 142 -60 303z M268 748q0 -118 44 -224q42 -102 119 -182q75 -78 175 -123t215 -45q109 0 205 45q98 46 169 123q73 79 116 180t43 219q0 108 -43 201q-43 94 -117 165q-75 72 -171 112q-99 41 -206 41q-111 0 -213 -41q-97 -39 -175 -111q-73 -67 -118 -163q-43 -92 -43 -197zM441 1622 q34 93 115 157q95 74 248 33q9 -3 35 -12l42 -17q6 -2 11.5 -4.5t9 -4t4.5 -1.5q165 -60 258 21q9 7 11 5l2 -2t2 -1l2 -2q-40 -98 -117 -158q-101 -80 -264 -29l-4 1q-5 2 -15 6.5t-20 8.5q-40 16 -45 19q-85 29 -145 29q-59 0 -115 -47q-8 -11 -15 -2z" />
<glyph unicode="&#xd6;" horiz-adv-x="1617" d="M63 748q0 146 60 277q60 130 161 227q104 100 237 155q136 57 290 57q153 0 290 -57q133 -55 237 -155q101 -97 161 -227t60 -277q0 -160 -60 -303t-161 -247q-104 -107 -237 -167q-138 -62 -290 -62t-290 62q-133 60 -237 167q-101 104 -161 247q-60 142 -60 303z M268 748q0 -118 44 -224q42 -102 119 -182q75 -78 175 -123t215 -45q109 0 205 45q98 46 169 123q73 79 116 180t43 219q0 108 -43 201q-43 94 -117 165q-75 72 -171 112q-99 41 -206 41q-111 0 -213 -41q-97 -39 -175 -111q-73 -67 -118 -163q-43 -92 -43 -197zM490 1731 l144 145l143 -145l-143 -144zM845 1731l143 145l144 -145l-144 -144z" />
<glyph unicode="&#xd7;" horiz-adv-x="1017" d="M128 334q0 1 1 3.5t2 4.5l2 6l262 346l-260 338l-2 12h225l156 -210l162 210h205l2 -10l-260 -336l299 -370h-240l-170 245l-168 -243h-213q-4 0 -3 4z" />
<glyph unicode="&#xd8;" horiz-adv-x="1617" d="M63 748q0 146 60 277q60 130 161 227q104 100 237 155q136 57 290 57q112 0 219 -32l82 167h211l-118 -245q72 -43 133 -102q101 -97 161 -227t60 -277q0 -160 -60 -303t-161 -247q-104 -107 -237 -167q-138 -62 -290 -62q-133 0 -251 45l-64 -133h-225l112 230 q-49 35 -99 87q-101 104 -161 247q-60 142 -60 303zM268 748q0 -118 44 -224q42 -102 119 -182q21 -22 45 -42l463 946q-61 14 -122 14q-111 0 -213 -41q-97 -39 -175 -111q-73 -67 -118 -163q-43 -92 -43 -197zM650 202q84 -28 171 -28q109 0 205 45q98 46 169 123 q73 79 116 180t43 219q0 108 -43 201q-43 94 -117 165q-38 36 -78 62z" />
<glyph unicode="&#xd9;" horiz-adv-x="1153" d="M31 -6l428 729l-418 711h235l302 -510l299 510h235l-418 -711l428 -729h-235l-309 528l-312 -528h-235z" />
<glyph unicode="&#xda;" horiz-adv-x="1409" d="M84 578v856h205v-854q0 -84 33 -158q34 -75 89 -129q58 -57 132 -87q78 -32 162 -32q83 0 161 32q74 30 132 87q55 54 89 129q33 73 33 158v854h205v-856q0 -125 -48 -236q-49 -113 -133 -194q-86 -83 -198 -131t-241 -48t-242 48q-112 48 -198 131q-84 81 -133 194 q-48 111 -48 236zM705 1587v166l378 201v-170z" />
<glyph unicode="&#xdb;" horiz-adv-x="1409" d="M84 578v856h205v-854q0 -84 33 -158q34 -75 89 -129q58 -57 132 -87q78 -32 162 -32q83 0 161 32q74 30 132 87q55 54 89 129q33 73 33 158v854h205v-856q0 -125 -48 -236q-49 -113 -133 -194q-86 -83 -198 -131t-241 -48t-242 48q-112 48 -198 131q-84 81 -133 194 q-48 111 -48 236zM371 1587l334 363l333 -361l-207 -2l-126 139l-130 -139h-204z" />
<glyph unicode="&#xdc;" horiz-adv-x="1409" d="M84 578v856h205v-854q0 -84 33 -158q34 -75 89 -129q58 -57 132 -87q78 -32 162 -32q83 0 161 32q74 30 132 87q55 54 89 129q33 73 33 158v854h205v-856q0 -125 -48 -236q-49 -113 -133 -194q-86 -83 -198 -131t-241 -48t-242 48q-112 48 -198 131q-84 81 -133 194 q-48 111 -48 236zM384 1731l143 145l144 -145l-144 -144zM738 1731l144 145l143 -145l-143 -144z" />
<glyph unicode="&#xdd;" horiz-adv-x="1173" d="M31 1434h241l320 -500l319 500h242l-459 -719v-715h-205v715zM592 1587v166l379 201v-170z" />
<glyph unicode="&#xde;" horiz-adv-x="1136" d="M104 -412v1606h205v-276q61 31 125 48q62 17 139 17q104 0 194 -40q93 -41 159 -107q65 -65 107 -158q40 -89 40 -193q0 -106 -40 -196q-42 -95 -108 -161q-69 -68 -160 -109q-88 -39 -194 -39q-74 0 -138 19q-68 20 -124 54v-465h-205zM309 297q47 -53 115 -83t147 -30 q63 0 115 24q55 25 94 64q41 41 65 97q23 53 23 116t-23 113q-24 52 -65 93q-39 39 -94 64q-50 23 -115 23q-79 0 -147 -27q-67 -27 -115 -73v-381z" />
<glyph unicode="&#xdf;" horiz-adv-x="1216" d="M143 -121q0 248 1 523q1 402 -1 432q-1 151 37 252q39 101 146 157q72 37 170 46t169 -10q73 -20 142 -71q70 -52 92 -127q22 -76 0 -149q-34 -116 -209 -178q-37 -15 -66 -47q-30 -33 -4 -69q25 -35 75 -53q47 -17 121 -25q76 -8 104 -17q88 -27 155 -85t78 -145 q10 -84 -28 -168q-36 -80 -117 -118q-131 -58 -290 -46q-165 12 -284 76q-6 6 -6 83v126q132 -51 135 -53q146 -62 285 -47q72 8 102 67q18 40 -14 74q-32 33 -80 52q-46 18 -114 27q-268 37 -318 200q-16 52 -7 116q9 65 36 95q28 31 114 72q89 42 140 122q13 25 1 47 t-36 37q-117 61 -258 -12q-38 -21 -56 -63q-19 -43 -20 -72q-2 -40 -2 -99v-950l-6 -6h-183z" />
<glyph unicode="&#xe0;" horiz-adv-x="937" d="M74 260q0 70 29 129q30 62 99 107q67 44 178 71q110 27 269 27q0 50 -8 95q-7 42 -31 70q-23 27 -61 42q-36 14 -98 14q-89 0 -168 -30q-83 -31 -166 -107h-21l78 258q53 35 135 60q78 24 150 24q56 0 122 -13q69 -13 129 -57t102 -126t42 -220v-604h-205v51 q-53 -35 -120 -53q-66 -18 -121 -18q-70 0 -130 21q-62 22 -106 60q-43 38 -72 90q-26 48 -26 109zM82 1337v172l379 -200l-2 -166zM270 264q0 -66 57 -84t136 -18q45 0 95 15q48 15 91 40v193q-67 0 -147 -7q-70 -6 -121 -21q-50 -15 -81 -44q-30 -28 -30 -74z" />
<glyph unicode="&#xe1;" horiz-adv-x="937" d="M74 260q0 70 29 129q30 62 99 107q67 44 178 71q110 27 269 27q0 50 -8 95q-7 42 -31 70q-23 27 -61 42q-36 14 -98 14q-89 0 -168 -30q-83 -31 -166 -107h-21l78 258q53 35 135 60q78 24 150 24q56 0 122 -13q69 -13 129 -57t102 -126t42 -220v-604h-205v51 q-53 -35 -120 -53q-66 -18 -121 -18q-70 0 -130 21q-62 22 -106 60q-43 38 -72 90q-26 48 -26 109zM270 264q0 -66 57 -84t136 -18q45 0 95 15q48 15 91 40v193q-67 0 -147 -7q-70 -6 -121 -21q-50 -15 -81 -44q-30 -28 -30 -74zM459 1143v166l379 200v-170z" />
<glyph unicode="&#xe2;" horiz-adv-x="937" d="M74 260q0 70 29 129q30 62 99 107q67 44 178 71q110 27 269 27q0 50 -8 95q-7 42 -31 70q-23 27 -61 42q-36 14 -98 14q-89 0 -168 -30q-83 -31 -166 -107h-21l78 258q53 35 135 60q78 24 150 24q56 0 122 -13q69 -13 129 -57t102 -126t42 -220v-604h-205v51 q-53 -35 -120 -53q-66 -18 -121 -18q-70 0 -130 21q-62 22 -106 60q-43 38 -72 90q-26 48 -26 109zM125 1143l334 362l334 -360l-207 -2l-127 139l-129 -139h-205zM270 264q0 -66 57 -84t136 -18q45 0 95 15q48 15 91 40v193q-67 0 -147 -7q-70 -6 -121 -21q-50 -15 -81 -44 q-30 -28 -30 -74z" />
<glyph unicode="&#xe3;" horiz-adv-x="937" d="M74 260q0 70 29 129q30 62 99 107q67 44 178 71q110 27 269 27q0 50 -8 95q-7 42 -31 70q-23 27 -61 42q-36 14 -98 14q-89 0 -168 -30q-83 -31 -166 -107h-21l78 258q53 35 135 60q78 24 150 24q56 0 122 -13q69 -13 129 -57t102 -126t42 -220v-604h-205v51 q-53 -35 -120 -53q-66 -18 -121 -18q-70 0 -130 21q-62 22 -106 60q-43 38 -72 90q-26 48 -26 109zM89 1177q34 94 115 158q95 74 248 33q5 -2 16.5 -6.5t17.5 -6.5l42 -16q6 -2 12 -4.5t9.5 -4t4.5 -1.5q166 -60 258 20q8 7 10 5q1 -1 4 -3l2 -2q-40 -99 -116 -158 q-100 -79 -265 -28q-1 0 -38 15q-35 14 -45 20q-83 28 -145 28q-60 0 -116 -47q-7 -10 -14 -2zM270 264q0 -66 57 -84t136 -18q45 0 95 15q48 15 91 40v193q-67 0 -147 -7q-70 -6 -121 -21q-50 -15 -81 -44q-30 -28 -30 -74z" />
<glyph unicode="&#xe4;" horiz-adv-x="937" d="M74 260q0 70 29 129q30 62 99 107q67 44 178 71q110 27 269 27q0 50 -8 95q-7 42 -31 70q-23 27 -61 42q-36 14 -98 14q-89 0 -168 -30q-83 -31 -166 -107h-21l78 258q53 35 135 60q78 24 150 24q56 0 122 -13q69 -13 129 -57t102 -126t42 -220v-604h-205v51 q-53 -35 -120 -53q-66 -18 -121 -18q-70 0 -130 21q-62 22 -106 60q-43 38 -72 90q-26 48 -26 109zM138 1286l144 146l143 -146l-143 -143zM270 264q0 -66 57 -84t136 -18q45 0 95 15q48 15 91 40v193q-67 0 -147 -7q-70 -6 -121 -21q-50 -15 -81 -44q-30 -28 -30 -74z M493 1286l143 146l143 -146l-143 -143z" />
<glyph unicode="&#xe5;" horiz-adv-x="937" d="M74 260q0 70 29 129q30 62 99 107q67 44 178 71q110 27 269 27q0 50 -8 95q-7 42 -31 70q-23 27 -61 42q-36 14 -98 14q-89 0 -168 -30q-83 -31 -166 -107h-21l78 258q53 35 135 60q78 24 150 24q56 0 122 -13q69 -13 129 -57t102 -126t42 -220v-604h-205v51 q-53 -35 -120 -53q-66 -18 -121 -18q-70 0 -130 21q-62 22 -106 60q-43 38 -72 90q-26 48 -26 109zM270 264q0 -66 57 -84t136 -18q45 0 95 15q48 15 91 40v193q-67 0 -147 -7q-70 -6 -121 -21q-50 -15 -81 -44q-30 -28 -30 -74zM278 1325q0 74 53 127t127 53q76 0 129 -53 t53 -127q0 -76 -53 -129t-129 -53q-74 0 -127 53t-53 129zM380 1325q0 -33 22 -56q23 -24 56 -24q32 0 56 24t24 56q0 33 -24 55q-25 23 -56 23q-33 0 -56 -23q-22 -22 -22 -55z" />
<glyph unicode="&#xe6;" horiz-adv-x="1638" d="M74 260q0 70 29 129q37 78 99 107q120 56 178 71l234 70q-5 0 -2 92q0 39 -49 66q-3 1 -7 3t-7 3q-36 14 -98 14q-89 0 -168 -30q-83 -31 -166 -107h-21l78 258q53 35 135 60q78 24 150 24q56 0 122 -13q69 -13 129 -57l8 -6q25 16 69 36q90 40 196 40q95 0 193 -31 q93 -30 163 -98q70 -69 106 -174t19 -256h-610v-228q27 -16 64 -29q63 -22 124 -22q106 0 200 35q93 35 159 90v-213q-89 -55 -183 -84q-99 -30 -206 -30q-86 0 -158 23v-3h-205v51q-53 -35 -120 -53q-66 -18 -121 -18q-70 0 -130 21q-62 22 -106 60q-43 38 -72 90 q-26 48 -26 109zM270 264q0 -66 57 -84q79 -25 136 -18q68 9 95 15l106 24l8 123q-6 79 -31 133q-1 3 -260 -75q-50 -15 -81 -44q-30 -28 -30 -74zM828 785q20 -56 24 -128h379q0 34 -21 64q-23 33 -54 53q-33 22 -79 37q-42 14 -96 14q-85 0 -153 -40z" />
<glyph unicode="&#xe7;" horiz-adv-x="942" d="M63 485q0 104 40 193q41 92 109 158t160 107q90 40 195 40q92 0 171 -22q77 -22 153 -64v-246q-57 58 -140 92q-87 35 -186 35q-63 0 -115 -23q-56 -25 -95 -64q-38 -38 -63 -94q-24 -54 -24 -114q0 -61 24 -116q25 -58 63 -96q37 -37 95 -63q54 -24 115 -24 q102 0 186 34q86 35 140 93v-245q-76 -43 -154 -64q-81 -22 -172 -22q-107 0 -195 39q-92 41 -159 109q-67 69 -108 161q-40 90 -40 196zM272 -207q74 -15 168 40q28 16 28 112v47h194l-1 -133q-2 -91 -51 -140q-94 -96 -338 -96v170z" />
<glyph unicode="&#xe8;" horiz-adv-x="1101" d="M63 522q0 104 40 193q40 90 109 157q69 68 160 108q90 40 195 40q95 0 193 -31q94 -30 164 -98q69 -67 105 -174t20 -256h-775q12 -59 44 -111q31 -50 78 -88q46 -37 106 -58q63 -22 125 -22q105 0 199 35q93 35 159 90v-213q-89 -55 -183 -84q-99 -30 -206 -30 q-112 0 -208 43q-98 44 -169 116q-72 73 -114 173q-42 99 -42 210zM190 1337v172l379 -200l-2 -166zM291 657h524q0 35 -20 64q-22 32 -55 53q-35 23 -78 37q-42 14 -97 14q-93 0 -166 -48t-108 -120z" />
<glyph unicode="&#xe9;" horiz-adv-x="1101" d="M63 522q0 104 40 193q40 90 109 157q69 68 160 108q90 40 195 40q95 0 193 -31q94 -30 164 -98q69 -67 105 -174t20 -256h-775q12 -59 44 -111q31 -50 78 -88q46 -37 106 -58q63 -22 125 -22q105 0 199 35q93 35 159 90v-213q-89 -55 -183 -84q-99 -30 -206 -30 q-112 0 -208 43q-98 44 -169 116q-72 73 -114 173q-42 99 -42 210zM291 657h524q0 35 -20 64q-22 32 -55 53q-35 23 -78 37q-42 14 -97 14q-93 0 -166 -48t-108 -120zM567 1143v166l379 200v-170z" />
<glyph unicode="&#xea;" horiz-adv-x="1101" d="M63 522q0 104 40 193q40 90 109 157q69 68 160 108q90 40 195 40q95 0 193 -31q94 -30 164 -98q69 -67 105 -174t20 -256h-775q12 -59 44 -111q31 -50 78 -88q46 -37 106 -58q63 -22 125 -22q105 0 199 35q93 35 159 90v-213q-89 -55 -183 -84q-99 -30 -206 -30 q-112 0 -208 43q-98 44 -169 116q-72 73 -114 173q-42 99 -42 210zM233 1143l334 362l334 -360l-207 -2l-127 139l-129 -139h-205zM291 657h524q0 35 -20 64q-22 32 -55 53q-35 23 -78 37q-42 14 -97 14q-93 0 -166 -48t-108 -120z" />
<glyph unicode="&#xeb;" horiz-adv-x="1101" d="M63 522q0 104 40 193q40 90 109 157q69 68 160 108q90 40 195 40q95 0 193 -31q94 -30 164 -98q69 -67 105 -174t20 -256h-775q12 -59 44 -111q31 -50 78 -88q46 -37 106 -58q63 -22 125 -22q105 0 199 35q93 35 159 90v-213q-89 -55 -183 -84q-99 -30 -206 -30 q-112 0 -208 43q-98 44 -169 116q-72 73 -114 173q-42 99 -42 210zM247 1286l143 146l144 -146l-144 -143zM291 657h524q0 35 -20 64q-22 32 -55 53q-35 23 -78 37q-42 14 -97 14q-93 0 -166 -48t-108 -120zM601 1286l143 146l144 -146l-144 -143z" />
<glyph unicode="&#xec;" d="M-171 1300v173l379 -201l-2 -166zM104 0v971h203v-971h-203z" />
<glyph unicode="&#xed;" d="M104 0v971h203v-971h-203zM206 1106v166l379 201v-170z" />
<glyph unicode="&#xee;" d="M-128 1106l334 362l334 -360l-207 -2l-127 139l-129 -139h-205zM104 0v971h203v-971h-203z" />
<glyph unicode="&#xef;" d="M-115 1249l144 146l143 -146l-143 -143zM104 0v971h203v-971h-203zM240 1249l143 146l143 -146l-143 -143z" />
<glyph unicode="&#xf1;" horiz-adv-x="1071" d="M104 0v973h205v-60q58 35 119 52q63 18 133 18q85 0 163 -32q76 -31 136 -87q59 -54 94 -128q35 -73 35 -152v-584h-205v584q0 40 -17 74q-18 36 -48 63q-29 26 -72 42q-40 15 -88 15q-77 0 -143 -24q-64 -23 -107 -66v-688h-205zM177 1140q34 94 115 158q95 74 248 33 q5 -2 16.5 -6.5t17.5 -6.5l42 -16q6 -2 12 -4.5t9.5 -4t4.5 -1.5q166 -60 258 20q8 7 10 5q1 -1 4 -3l2 -2q-40 -97 -116 -157q-101 -80 -264 -29q-2 0 -39 15q-35 14 -45 20q-83 28 -145 28q-60 0 -116 -47q-7 -10 -14 -2z" />
<glyph unicode="&#xf2;" horiz-adv-x="1126" d="M63 485q0 104 40 193q41 92 109 158t160 107q90 40 195 40q104 0 194 -40q93 -41 159 -107q65 -65 107 -158q40 -89 40 -193q0 -106 -40 -196q-42 -95 -108 -161q-69 -68 -160 -109q-88 -39 -194 -39q-107 0 -195 39q-92 41 -159 109q-67 69 -108 161q-40 90 -40 196z M190 1300v173l379 -201l-2 -166zM268 483q0 -61 24 -116q25 -58 63 -96q37 -37 95 -63q54 -24 115 -24q63 0 115 24q55 25 94 64q41 41 65 97q23 53 23 116t-23 113q-24 52 -65 93q-39 39 -94 64q-50 23 -115 23q-63 0 -115 -23q-56 -25 -95 -64q-38 -38 -63 -94 q-24 -54 -24 -114z" />
<glyph unicode="&#xf3;" horiz-adv-x="1126" d="M63 485q0 104 40 193q41 92 109 158t160 107q90 40 195 40q104 0 194 -40q93 -41 159 -107q65 -65 107 -158q40 -89 40 -193q0 -106 -40 -196q-42 -95 -108 -161q-69 -68 -160 -109q-88 -39 -194 -39q-107 0 -195 39q-92 41 -159 109q-67 69 -108 161q-40 90 -40 196z M268 483q0 -61 24 -116q25 -58 63 -96q37 -37 95 -63q54 -24 115 -24q63 0 115 24q55 25 94 64q41 41 65 97q23 53 23 116t-23 113q-24 52 -65 93q-39 39 -94 64q-50 23 -115 23q-63 0 -115 -23q-56 -25 -95 -64q-38 -38 -63 -94q-24 -54 -24 -114zM567 1106v166l379 201 v-170z" />
<glyph unicode="&#xf4;" horiz-adv-x="1126" d="M63 485q0 104 40 193q41 92 109 158t160 107q90 40 195 40q104 0 194 -40q93 -41 159 -107q65 -65 107 -158q40 -89 40 -193q0 -106 -40 -196q-42 -95 -108 -161q-69 -68 -160 -109q-88 -39 -194 -39q-107 0 -195 39q-92 41 -159 109q-67 69 -108 161q-40 90 -40 196z M233 1106l334 362l334 -360l-207 -2l-127 139l-129 -139h-205zM268 483q0 -61 24 -116q25 -58 63 -96q37 -37 95 -63q54 -24 115 -24q63 0 115 24q55 25 94 64q41 41 65 97q23 53 23 116t-23 113q-24 52 -65 93q-39 39 -94 64q-50 23 -115 23q-63 0 -115 -23 q-56 -25 -95 -64q-38 -38 -63 -94q-24 -54 -24 -114z" />
<glyph unicode="&#xf5;" horiz-adv-x="1126" d="M63 485q0 104 40 193q41 92 109 158t160 107q90 40 195 40q104 0 194 -40q93 -41 159 -107q65 -65 107 -158q40 -89 40 -193q0 -106 -40 -196q-42 -95 -108 -161q-69 -68 -160 -109q-88 -39 -194 -39q-107 0 -195 39q-92 41 -159 109q-67 69 -108 161q-40 90 -40 196z M198 1140q35 95 114 158q95 74 248 33q6 -2 18 -6.5t17 -6.5l42 -16q6 -2 12 -4.5t9.5 -4t4.5 -1.5q166 -60 258 20q8 7 10 5q1 -1 4 -3l2 -2q-39 -96 -117 -157q-101 -80 -264 -29q-2 0 -39 15q-35 14 -45 20q-83 28 -144 28q-60 0 -116 -47q-7 -10 -14 -2zM268 483 q0 -61 24 -116q25 -58 63 -96q37 -37 95 -63q54 -24 115 -24q63 0 115 24q55 25 94 64q41 41 65 97q23 53 23 116t-23 113q-24 52 -65 93q-39 39 -94 64q-50 23 -115 23q-63 0 -115 -23q-56 -25 -95 -64q-38 -38 -63 -94q-24 -54 -24 -114z" />
<glyph unicode="&#xf6;" horiz-adv-x="1126" d="M63 485q0 104 40 193q41 92 109 158t160 107q90 40 195 40q104 0 194 -40q93 -41 159 -107q65 -65 107 -158q40 -89 40 -193q0 -106 -40 -196q-42 -95 -108 -161q-69 -68 -160 -109q-88 -39 -194 -39q-107 0 -195 39q-92 41 -159 109q-67 69 -108 161q-40 90 -40 196z M247 1249l143 146l144 -146l-144 -143zM268 483q0 -61 24 -116q25 -58 63 -96q37 -37 95 -63q54 -24 115 -24q63 0 115 24q55 25 94 64q41 41 65 97q23 53 23 116t-23 113q-24 52 -65 93q-39 39 -94 64q-50 23 -115 23q-63 0 -115 -23q-56 -25 -95 -64q-38 -38 -63 -94 q-24 -54 -24 -114zM601 1249l143 146l144 -146l-144 -143z" />
<glyph unicode="&#xf7;" horiz-adv-x="792" d="M78 578v225h637v-225h-637zM256 387l143 145l144 -145l-144 -143zM260 997l143 146l144 -146l-144 -143z" />
<glyph unicode="&#xf8;" horiz-adv-x="1126" d="M63 485q0 104 40 193q41 92 109 158t160 107q90 40 195 40q96 0 176 -32l54 89h211l-110 -184q4 -4 11.5 -10.5t10.5 -9.5q65 -65 107 -158q40 -89 40 -193q0 -106 -40 -196q-42 -95 -108 -161q-69 -68 -160 -109q-88 -39 -194 -39q-91 0 -172 30l-24 -41l-226 -14 l91 151q-8 7 -23 22q-67 69 -108 161q-40 90 -40 196zM268 483q0 -61 24 -116q20 -48 50 -82l292 485q-35 8 -69 8q-63 0 -115 -23q-56 -25 -95 -64q-38 -38 -63 -94q-24 -54 -24 -114zM501 191q29 -7 64 -7q63 0 115 24q55 25 94 64q41 41 65 97q23 53 23 116t-23 113 q-19 43 -49 77z" />
<glyph unicode="&#xf9;" horiz-adv-x="1075" d="M84 399v574h205v-537q0 -54 17 -95q18 -44 48 -77t71 -51t85 -18q78 0 140 17q72 20 120 54v707h205v-973h-205v61q-116 -81 -260 -81q-67 0 -137 20q-76 22 -139 70q-63 49 -107 130q-43 80 -43 199zM153 1300v173l378 -201l-2 -166z" />
<glyph unicode="&#xfa;" horiz-adv-x="1075" d="M84 399v574h205v-537q0 -54 17 -95q18 -44 48 -77t71 -51t85 -18q78 0 140 17q72 20 120 54v707h205v-973h-205v61q-116 -81 -260 -81q-67 0 -137 20q-76 22 -139 70q-63 49 -107 130q-43 80 -43 199zM529 1106v166l379 201v-170z" />
<glyph unicode="&#xfb;" horiz-adv-x="1075" d="M84 399v574h205v-537q0 -54 17 -95q18 -44 48 -77t71 -51t85 -18q78 0 140 17q72 20 120 54v707h205v-973h-205v61q-116 -81 -260 -81q-67 0 -137 20q-76 22 -139 70q-63 49 -107 130q-43 80 -43 199zM196 1106l333 362l334 -360l-207 -2l-127 139l-129 -139h-204z" />
<glyph unicode="&#xfc;" horiz-adv-x="1075" d="M84 399v574h205v-537q0 -54 17 -95q18 -44 48 -77t71 -51t85 -18q78 0 140 17q72 20 120 54v707h205v-973h-205v61q-116 -81 -260 -81q-67 0 -137 20q-76 22 -139 70q-63 49 -107 130q-43 80 -43 199zM213 1225l143 145l144 -145l-144 -144zM567 1225l144 145l143 -145 l-143 -144z" />
<glyph unicode="&#xfd;" horiz-adv-x="1157" d="M27 973h231l317 -611l328 611h227l-636 -1202q-61 -114 -172 -182t-240 -68v205q74 0 135 38q63 39 98 103l144 274zM579 1106v166l378 201v-170z" />
<glyph unicode="&#xfe;" horiz-adv-x="1136" d="M104 -412v1688h205v-358q61 31 125 48q62 17 139 17q104 0 194 -40q93 -41 159 -107q65 -65 107 -158q40 -89 40 -193q0 -106 -40 -196q-42 -95 -108 -161q-69 -68 -160 -109q-88 -39 -194 -39q-74 0 -138 19q-68 20 -124 54v-465h-205zM309 297q47 -53 115 -83t147 -30 q63 0 115 24q55 25 94 64q41 41 65 97q23 53 23 116t-23 113q-24 52 -65 93q-39 39 -94 64q-50 23 -115 23q-79 0 -147 -27q-67 -27 -115 -73v-381z" />
<glyph unicode="&#xff;" horiz-adv-x="1157" d="M27 973h231l317 -611l328 611h227l-636 -1202q-61 -114 -172 -182t-240 -68v205q74 0 135 38q63 39 98 103l144 274zM258 1249l143 146l144 -146l-144 -143zM612 1249l144 146l143 -146l-143 -143z" />
<glyph unicode="&#x152;" horiz-adv-x="1925" d="M63 748q0 146 60 277q60 130 161 227q104 100 237 155q136 57 290 57q113 0 216 -30h808v-205h-473q82 -85 137 -204q33 -73 49 -155h129v-204h-122q-12 -115 -56 -221q-57 -136 -150 -236h527v-209h-856q-104 -31 -209 -31q-152 0 -290 62q-133 60 -237 167 q-101 104 -161 247q-60 142 -60 303zM268 748q0 -118 44 -224q42 -102 119 -182q75 -78 175 -123t215 -45q77 0 154 25v1037q-75 24 -158 24q-111 0 -213 -41q-97 -39 -175 -111q-73 -67 -118 -163q-43 -92 -43 -197zM1180 326l15 16q73 79 116 180q29 71 38 144h-169v-340z M1180 870h157q-13 45 -26 72q-43 94 -117 165l-14 13v-250z" />
<glyph unicode="&#x153;" horiz-adv-x="1896" d="M63 485q0 104 40 193q41 92 109 158t160 107q90 40 195 40q104 0 194 -40q93 -41 159 -107q16 -16 29 -32q24 34 58 68q70 69 159 108q90 40 196 40q94 0 192 -31q94 -30 164 -98q70 -69 106 -174t19 -256h-774q12 -59 44 -111q31 -50 78 -88t105 -58q63 -22 125 -22 q106 0 200 35q93 35 159 90v-213q-88 -55 -184 -84q-99 -30 -205 -30q-112 0 -208 43q-98 44 -169 116q-30 32 -43 50q-24 -33 -52 -61q-69 -68 -160 -109q-88 -39 -194 -39q-107 0 -195 39q-92 41 -159 109q-67 69 -108 161q-40 90 -40 196zM268 483q0 -61 24 -116 q25 -58 63 -96q37 -37 95 -63q54 -24 115 -24q63 0 115 24q55 25 94 64q41 41 65 97q19 44 22 93q-3 30 -3 60v11q-7 36 -19 65q-24 52 -65 93q-39 39 -94 64q-50 23 -115 23q-63 0 -115 -23q-56 -25 -95 -64q-38 -38 -63 -94q-24 -54 -24 -114zM1085 657h525q0 34 -21 64 q-23 33 -54 53q-33 22 -79 37q-42 14 -96 14q-92 0 -166 -48q-75 -49 -109 -120z" />
<glyph unicode="&#x178;" horiz-adv-x="1173" d="M31 1434h241l320 -500l319 500h242l-459 -719v-715h-205v715zM272 1634l144 146l143 -146l-143 -143zM627 1634l143 146l143 -146l-143 -143z" />
<glyph unicode="&#x2c6;" horiz-adv-x="806" d="M70 1001l333 363l334 -360l-207 -3l-127 140l-129 -140h-204z" />
<glyph unicode="&#x2dc;" horiz-adv-x="821" d="M41 1049q34 93 115 157q94 73 247 33q9 -3 35 -12l42 -17q6 -2 12 -4.5t9.5 -4t4.5 -1.5q165 -60 258 21q8 7 10 5q1 -1 4 -3l2 -2q-40 -99 -116 -158q-101 -80 -265 -29l-5 2q-4 1 -14 5.5t-20 8.5q-40 16 -45 19q-85 29 -144 29q-60 0 -116 -47q-7 -10 -14 -2z" />
<glyph unicode="&#x2000;" horiz-adv-x="977" />
<glyph unicode="&#x2001;" horiz-adv-x="1954" />
<glyph unicode="&#x2002;" horiz-adv-x="977" />
<glyph unicode="&#x2003;" horiz-adv-x="1954" />
<glyph unicode="&#x2004;" horiz-adv-x="651" />
<glyph unicode="&#x2005;" horiz-adv-x="488" />
<glyph unicode="&#x2006;" horiz-adv-x="325" />
<glyph unicode="&#x2007;" horiz-adv-x="325" />
<glyph unicode="&#x2008;" horiz-adv-x="244" />
<glyph unicode="&#x2009;" horiz-adv-x="390" />
<glyph unicode="&#x200a;" horiz-adv-x="108" />
<glyph unicode="&#x2010;" horiz-adv-x="776" d="M63 451v225h637v-225h-637z" />
<glyph unicode="&#x2011;" horiz-adv-x="776" d="M63 451v225h637v-225h-637z" />
<glyph unicode="&#x2012;" horiz-adv-x="776" d="M63 451v225h637v-225h-637z" />
<glyph unicode="&#x2013;" horiz-adv-x="1024" d="M0 344v205h1024v-205h-1024z" />
<glyph unicode="&#x2014;" horiz-adv-x="1536" d="M0 344v205h1536v-205h-1536z" />
<glyph unicode="&#x2018;" horiz-adv-x="358" d="M23 934v221q0 58 24 109q23 48 69 88q43 37 102 58q61 22 126 22v-23q-22 -10 -45 -26q-20 -14 -37 -44q-16 -27 -25 -72q-10 -48 -10 -112v-221h-204z" />
<glyph unicode="&#x2019;" horiz-adv-x="389" d="M45 936v22q22 7 45 25q20 16 37 45t26 73q9 43 9 111v222h205v-222q0 -57 -25 -109q-23 -47 -69 -87q-44 -38 -102 -59q-59 -21 -126 -21z" />
<glyph unicode="&#x201c;" horiz-adv-x="747" d="M23 934v221q0 58 24 109q23 48 69 88q43 37 102 58q61 22 126 22v-23q-22 -10 -45 -26q-20 -14 -37 -44q-16 -27 -25 -72q-10 -48 -10 -112v-221h-204zM406 983v172q0 59 25 109t69 88t102 58q63 22 127 22v-23q-22 -10 -45 -26q-20 -14 -37 -44q-16 -27 -25 -72 q-10 -48 -10 -112v-172h-206z" />
<glyph unicode="&#x201d;" horiz-adv-x="733" d="M25 936v22q22 7 45 25q18 14 36 45q17 29 26 73q9 43 9 111v222h205v-222q0 -60 -24 -109q-23 -47 -69 -87q-44 -38 -102 -59q-59 -21 -126 -21zM393 985v23q24 8 45 24q20 16 37 45t26 73t9 112v172h207v-172q0 -60 -26 -110q-26 -51 -68 -87q-43 -37 -103 -58 q-63 -22 -127 -22z" />
<glyph unicode="&#x2026;" horiz-adv-x="829" d="M41 0v199h205v-199h-205zM317 0v199h205v-199h-205zM594 0v199h205v-199h-205z" />
<glyph unicode="&#x202f;" horiz-adv-x="390" />
<glyph unicode="&#x205f;" horiz-adv-x="488" />
<glyph unicode="&#x20ac;" horiz-adv-x="1536" d="M10 410l103 204h104q-2 38 -2 66q0 30 2 68h-207l103 204h153q56 199 236 325t440 126q317 0 512 -195l-100 -213q-60 90 -168 147q-106 56 -254 56q-162 0 -265 -66q-104 -66 -145 -180h811l-98 -204h-750q-4 -36 -4 -70q0 -28 4 -64h686l-96 -204h-532q34 -93 140 -161 q108 -69 259 -69q137 0 242 49q106 49 168 119v-246q-57 -46 -176 -87q-117 -40 -265 -40q-254 0 -415 121q-162 122 -230 314h-256z" />
<glyph unicode="&#x2122;" horiz-adv-x="843" d="M30 1372v58h307v-58h-125v-344h-57v344h-125zM373 1028v401h57l141 -172l140 172h58v-401h-57v312l-141 -173l-142 173v-312h-56z" />
<glyph unicode="&#x25fc;" horiz-adv-x="972" d="M0 0v973h973v-973h-973z" />
<glyph unicode="&#xfb01;" horiz-adv-x="749" d="M16 735v203h164v192q0 73 27 136q27 64 72 110q48 49 105 75q62 28 130 28q42 0 102 -13t101 -28v-203q-58 33 -106 38q-53 5 -95 5q-57 0 -94 -55t-37 -133v-150l324 4v-4v-207v-733h-203l1 733h-122v-731h-205v733h-164z" />
<glyph unicode="&#xfb02;" horiz-adv-x="1312" d="M16 735v203h164v192q0 73 27 136q27 64 72 110q48 49 105 75q62 28 130 28q42 0 102 -13t101 -28v-6h196v-1065q0 -79 41 -131t103 -52q51 0 114 20t109 54v-207q-44 -32 -109 -52q-60 -19 -114 -19q-74 0 -137 24t-111 69t-74 103t-26 129v428h-324v-729h-205v731h-164z M385 940h324v300q-52 28 -98 33q-53 5 -95 5q-57 0 -94 -55t-37 -133v-150z" />
</font>
</defs>
</svg>
